HIERARCHY
ROOT SpineBase
{
  OFFSET 0.000000 0.000000 0.000000
  CHANNELS 6 Xposition Yposition Zposition Zrotation Xrotation Yrotation
  JOINT SpineMid
  {
    OFFSET 0.000000 28.173198 -0.000000
    CHANNELS 3 Zrotation Xrotation Yrotation
    JOINT SpineShoulder
    {
      OFFSET 0.076802 20.950760 -0.668336
      CHANNELS 3 Zrotation Xrotation Yrotation
      JOINT Neck
      {
        OFFSET 0.062840 6.940046 -0.523973
        CHANNELS 3 Zrotation Xrotation Yrotation
        JOINT Head
        {
          OFFSET -3.948876 13.108990 -0.161992
          CHANNELS 3 Zrotation Xrotation Yrotation
          End Site
          {
            OFFSET 0 0 0
          }
        }
      }
      JOINT ShoulderLeft
      {
        OFFSET -17.438873 -4.781209 4.948967
        CHANNELS 3 Zrotation Xrotation Yrotation
        JOINT ElbowLeft
        {
          OFFSET -1.473531 -25.565528 -0.551721
          CHANNELS 3 Zrotation Xrotation Yrotation
          JOINT WristLeft
          {
            OFFSET 0.805737 -20.172956 -5.952937
            CHANNELS 3 Zrotation Xrotation Yrotation
            JOINT HandLeft
            {
              OFFSET 1.661294 -6.198008 -2.907143
              CHANNELS 3 Zrotation Xrotation Yrotation
              JOINT HandTipLeft
              {
                OFFSET 1.242546 -6.528247 -0.416302
                CHANNELS 3 Zrotation Xrotation Yrotation
                End Site
                {
                  OFFSET 0 0 0
                }
              }
              JOINT ThumbLeft
              {
                OFFSET 3.508848 1.140193 -1.434047
                CHANNELS 3 Zrotation Xrotation Yrotation
                End Site
                {
                  OFFSET 0 0 0
                }
              }
            }
          }
        }
      }
      JOINT ShoulderRight
      {
        OFFSET 15.175779 -2.500303 -5.859512
        CHANNELS 3 Zrotation Xrotation Yrotation
        JOINT ElbowRight
        {
          OFFSET 5.993507 -22.212038 0.612059
          CHANNELS 3 Zrotation Xrotation Yrotation
          JOINT WristRight
          {
            OFFSET -1.030990 -21.915421 -7.995525
            CHANNELS 3 Zrotation Xrotation Yrotation
            JOINT HandRight
            {
              OFFSET -0.351331 -7.094072 -0.994522
              CHANNELS 3 Zrotation Xrotation Yrotation
              JOINT HandTipRight
              {
                OFFSET 0.226225 -5.581757 -1.402141
                CHANNELS 3 Zrotation Xrotation Yrotation
                End Site
                {
                  OFFSET 0 0 0
                }
              }
              JOINT ThumbRight
              {
                OFFSET 3.151114 -0.643655 -3.038403
                CHANNELS 3 Zrotation Xrotation Yrotation
                End Site
                {
                  OFFSET 0 0 0
                }
              }
            }
          }
        }
      }
    }
  }
  JOINT HipLeft
  {
    OFFSET -5.528072 0.160393 -1.520457
    CHANNELS 3 Zrotation Xrotation Yrotation
    JOINT KneeLeft
    {
      OFFSET 0.365734 -33.173088 3.742364
      CHANNELS 3 Zrotation Xrotation Yrotation
      JOINT AnkleLeft
      {
        OFFSET 2.063763 -31.233507 6.554847
        CHANNELS 3 Zrotation Xrotation Yrotation
        JOINT FootLeft
        {
          OFFSET -1.670354 -6.531355 -5.876501
          CHANNELS 3 Zrotation Xrotation Yrotation
          End Site
          {
            OFFSET 0 0 0
          }
        }
      }
    }
  }
  JOINT HipRight
  {
    OFFSET 6.400432 1.205120 -5.391437
    CHANNELS 3 Zrotation Xrotation Yrotation
    JOINT KneeRight
    {
      OFFSET 9.838578 -31.967883 1.922376
      CHANNELS 3 Zrotation Xrotation Yrotation
      JOINT AnkleRight
      {
        OFFSET 6.436310 -30.298714 6.482532
        CHANNELS 3 Zrotation Xrotation Yrotation
        JOINT FootRight
        {
          OFFSET 0.344345 -6.494481 -6.416888
          CHANNELS 3 Zrotation Xrotation Yrotation
          End Site
          {
            OFFSET 0 0 0
          }
        }
      }
    }
  }
}
MOTION
Frames: 10
Frame Time: 0.033333
-50.026605 72.095312 389.912209 0.736363 -1.585900 12.595127 0.095933 -0.149486 -12.551983 0.045091 -0.053920 0.050396 -0.165454 2.949764 0.264462 0.000000 0.000000 0.000000 -1.606590 -2.476049 0.185006 0.716704 4.239655 -0.286344 -2.202300 -14.489109 -3.368629 -7.456207 25.556518 8.672885 0.000000 0.000000 0.000000 0.000000 0.000000 0.000000 -2.983679 3.693367 0.493683 5.621794 -4.674198 -1.412015 -11.930853 16.133232 3.036038 6.609736 -15.993414 0.441068 0.000000 0.000000 0.000000 0.000000 0.000000 0.000000 -0.373043 1.708230 -12.579374 1.116378 1.048594 0.293743 -1.707496 -2.839483 0.656578 0.000000 0.000000 0.000000 -1.064017 2.491126 -12.415533 2.651012 1.934545 0.774935 -4.089034 -1.377255 1.229031 0.000000 0.000000 0.000000
-50.264575 72.069619 390.161338 1.097584 -1.488531 13.514094 0.140160 -0.147624 -13.454510 0.069873 -0.042392 0.069002 -0.007023 2.870410 0.236345 0.000000 0.000000 0.000000 -2.239430 -2.452967 0.152793 -0.206272 4.179704 0.126531 -1.345383 -12.680048 -3.034505 -5.252363 25.242888 7.403182 0.000000 0.000000 0.000000 0.000000 0.000000 0.000000 -2.764875 4.080871 0.594962 4.880300 -5.561918 -1.489761 -13.831182 17.126559 3.673401 8.126532 -18.734045 0.375591 0.000000 0.000000 0.000000 0.000000 0.000000 0.000000 -0.719723 1.703612 -13.489135 1.270695 1.448627 0.347010 -0.991280 -3.746133 -0.043742 0.000000 0.000000 0.000000 -1.331255 2.503234 -13.317789 2.829764 2.082622 0.847211 -4.678245 -2.279629 1.394790 0.000000 0.000000 0.000000
-50.549190 72.020111 390.412051 1.603879 -1.288999 14.917951 0.168970 -0.182600 -14.837079 0.089946 -0.040986 0.093382 1.140002 3.494701 0.381977 0.000000 0.000000 0.000000 -2.939201 -3.289609 0.147752 -1.430699 4.367365 0.573196 -2.042310 -8.798520 -1.503291 -1.008350 19.338971 3.687098 0.000000 0.000000 0.000000 0.000000 0.000000 0.000000 -2.248120 4.934473 0.814094 3.278579 -6.663749 -1.616658 -13.814679 16.797657 3.636390 10.093764 -19.270319 0.337023 0.000000 0.000000 0.000000 0.000000 0.000000 0.000000 -1.218544 1.658034 -14.882274 1.456077 1.855525 0.405668 -0.572518 -3.843914 -0.724412 0.000000 0.000000 0.000000 -1.671117 2.419617 -14.713102 2.945515 2.243518 0.922530 -4.952584 -2.437212 1.294700 0.000000 0.000000 0.000000
-50.862202 71.969938 390.625235 2.249017 -1.068771 16.331802 0.234024 -0.157347 -16.226797 0.094745 -0.030255 0.123074 2.420003 4.450749 0.609534 0.000000 0.000000 0.000000 -3.434417 -4.546344 0.144019 -3.487665 5.770683 1.318469 -3.222135 -7.396405 -0.255471 4.271303 13.281406 -0.051665 0.000000 0.000000 0.000000 0.000000 0.000000 0.000000 -1.949987 6.140799 1.130676 2.299009 -8.630345 -2.003132 -14.650765 17.001239 3.968797 9.768381 -18.646437 0.271284 0.000000 0.000000 0.000000 0.000000 0.000000 0.000000 -1.858528 1.657287 -16.283939 1.532527 2.364017 0.447788 -0.188108 -4.297672 -1.190938 0.000000 0.000000 0.000000 -1.858528 1.657287 -16.283939 2.657278 2.983380 1.134019 -5.389603 -1.786713 1.314546 0.000000 0.000000 0.000000
-51.166350 71.899655 390.725137 2.845222 -0.977266 16.987743 0.111999 -0.291958 -16.857325 0.249696 0.198085 0.147655 3.656115 5.725121 0.849093 0.000000 0.000000 0.000000 -3.680490 -5.929278 0.166093 -5.982132 7.278568 2.250311 -4.976028 -7.684361 0.654008 6.948649 11.983821 -2.053699 0.000000 0.000000 0.000000 0.000000 0.000000 0.000000 -1.979874 7.721083 1.511547 1.375039 -10.815670 -2.388853 -14.576743 17.473333 4.014089 9.530329 -20.112360 0.183741 0.000000 0.000000 0.000000 0.000000 0.000000 0.000000 -2.436689 1.764646 -16.925940 1.593025 2.703041 0.477316 0.044542 -4.814475 -1.433075 0.000000 0.000000 0.000000 -2.436689 1.764646 -16.925940 2.947035 3.041826 1.198942 -5.481648 -1.055516 1.100920 0.000000 0.000000 0.000000
-51.415481 71.836716 390.746377 3.621087 -0.590093 19.004185 0.532828 -0.165820 -18.852694 0.203964 0.134973 0.193356 4.914575 6.966433 1.134883 0.000000 0.000000 0.000000 -4.306756 -8.303203 0.192193 -8.991228 9.503555 3.566424 -6.309730 -10.745119 0.225970 5.767604 12.204582 -2.754710 0.000000 0.000000 0.000000 0.000000 0.000000 0.000000 -2.197614 9.123580 1.896272 -0.305009 -12.980595 -2.831867 -13.222227 15.789141 3.506413 8.849536 -17.164329 -0.003227 0.000000 0.000000 0.000000 0.000000 0.000000 0.000000 -2.063734 1.973909 -18.851720 0.510555 2.268414 0.363510 -0.127281 -4.500409 -1.358439 0.000000 0.000000 0.000000 -3.232868 1.735447 -18.936554 3.211789 3.047744 1.249091 -5.621812 -0.411942 0.968464 0.000000 0.000000 0.000000
-51.528596 71.726785 390.734689 4.628732 0.008058 21.685898 1.065728 -0.048676 -21.521087 0.084347 -0.032037 0.252808 6.044129 8.101955 1.396205 0.000000 0.000000 0.000000 -5.155333 -11.158586 0.229180 -11.476530 10.160230 4.614743 -8.534524 -8.678934 2.065651 9.531543 9.797281 -5.624305 0.000000 0.000000 0.000000 0.000000 0.000000 0.000000 -2.644328 10.651360 2.311994 -2.168850 -15.591563 -3.433726 -13.863981 17.447869 3.787927 9.096683 -19.848409 -0.006269 0.000000 0.000000 0.000000 0.000000 0.000000 0.000000 -2.807845 2.321291 -21.531109 0.164505 1.879288 0.314601 0.343781 -4.087989 -1.676294 0.000000 0.000000 0.000000 -4.305364 1.701327 -21.622268 3.387037 2.896852 1.253578 -5.689724 0.291515 0.914466 0.000000 0.000000 0.000000
-51.526341 71.605638 390.712399 5.658503 0.766832 25.120805 1.578828 -0.012920 -24.960063 -0.041533 -0.185827 0.312053 6.872084 8.727007 1.606714 0.000000 0.000000 0.000000 -5.852155 -14.084324 0.287027 -13.109191 9.372418 5.112553 -13.881476 -8.332129 4.534297 15.192112 11.125311 -8.551104 0.000000 0.000000 0.000000 0.000000 0.000000 0.000000 -3.205962 11.747383 2.643117 -4.014710 -17.293187 -4.058842 -14.463117 17.818392 3.940201 7.698053 -18.613604 0.036804 0.000000 0.000000 0.000000 0.000000 0.000000 0.000000 -3.656207 2.842007 -24.999908 -0.061084 1.336534 0.272309 0.316793 -3.311695 -1.618248 0.000000 0.000000 0.000000 -5.449543 1.707647 -25.077426 3.471474 2.699121 1.232861 -5.123960 -0.500230 0.265684 0.000000 0.000000 0.000000
-51.427624 71.466966 390.641072 6.825593 1.613938 28.163980 1.987589 -0.005223 -28.026216 -0.133176 -0.275894 0.371925 7.707159 9.479132 1.858215 0.000000 0.000000 0.000000 -6.506189 -16.805927 0.349924 -13.324132 8.479626 4.880134 -17.591159 -11.055281 4.635845 20.177204 14.724330 -10.073797 0.000000 0.000000 0.000000 0.000000 0.000000 0.000000 -4.223654 12.945096 3.025090 -6.071698 -19.155461 -4.764873 -11.391521 16.026747 2.753855 3.481373 -14.224444 0.235324 0.000000 0.000000 0.000000 0.000000 0.000000 0.000000 -4.906963 3.362884 -28.109953 -0.044364 0.929088 0.258310 -0.477210 -2.170755 -1.016155 0.000000 0.000000 0.000000 -6.778643 1.801762 -28.153518 3.516012 2.515554 1.207496 -5.037997 0.606455 0.254924 0.000000 0.000000 0.000000
-51.317239 71.435443 390.738226 8.317314 2.627766 31.969566 2.248359 0.000149 -31.890703 -0.218047 -0.354345 0.438345 8.384542 10.585068 2.184818 0.000000 0.000000 0.000000 -7.446226 -19.273492 0.360914 -12.348946 6.063788 3.911482 -18.924435 -8.664475 6.524010 18.502279 14.206682 -9.966870 0.000000 0.000000 0.000000 0.000000 0.000000 0.000000 -5.442734 13.878261 3.343113 -8.055966 -20.748492 -5.557557 -10.077275 9.792344 1.910652 -0.416038 -3.617970 1.368010 0.000000 0.000000 0.000000 0.000000 0.000000 0.000000 -6.377819 4.473293 -32.025534 0.140181 0.218188 0.266818 -0.435324 -1.973826 -0.912655 0.000000 0.000000 0.000000 -7.936843 1.536700 -32.055552 2.820994 2.581137 1.206870 -5.073953 1.655289 0.319185 0.000000 0.000000 0.000000
